<?xml version="1.0" encoding="UTF-8"?>
<svg id="Layer_2" data-name="Layer 2" xmlns="http://www.w3.org/2000/svg" xmlns:xlink="http://www.w3.org/1999/xlink" viewBox="0 0 690.74 217.05">
  <defs>
    <style>
      .cls-1 {
        fill: #37aae1;
      }

      .cls-2, .cls-3 {
        fill: #123b61;
      }

      .cls-4 {
        fill: #fff;
      }

      .cls-4, .cls-3, .cls-5 {
        fill-rule: evenodd;
      }

      .cls-6 {
        fill: #3aaa35;
      }

      .cls-7 {
        fill: url(#radial-gradient);
      }

      .cls-8 {
        fill: url(#linear-gradient);
      }

      .cls-5 {
        fill: #1f71b8;
      }
    </style>
    <linearGradient id="linear-gradient" x1="0" y1="119.73" x2="277.82" y2="119.73" gradientUnits="userSpaceOnUse">
      <stop offset=".38" stop-color="#3aaa35"/>
      <stop offset=".53" stop-color="#3aaa35"/>
      <stop offset=".58" stop-color="#349b3a"/>
      <stop offset=".68" stop-color="#277649"/>
      <stop offset=".82" stop-color="#123b61"/>
    </linearGradient>
    <radialGradient id="radial-gradient" cx="321.09" cy="42.37" fx="321.09" fy="42.37" r="30.96" gradientUnits="userSpaceOnUse">
      <stop offset="0" stop-color="#fff"/>
      <stop offset=".26" stop-color="#98d3ef"/>
      <stop offset=".45" stop-color="#52b5e5"/>
      <stop offset=".54" stop-color="#37aae1"/>
      <stop offset="1" stop-color="#37aae1"/>
    </radialGradient>
  </defs>
  <g id="Layer_1-2" data-name="Layer 1">
    <g>
      <g>
        <path class="cls-3" d="M690.34,211.56c2.04,5.72-4.23,2.79-5.85,4.58-13.68-1.29-15.96-1.25-18.57-12.59-.71-11.2-.96-16.24-1.72-32.43-5.99-1.18-14,.24-20.71-1.01-9.26,12.89-13.29,27.51-23.31,39.77-5.2,4.21-9.69,5.2-16.93,4.06-4.11-.93,4.83-22.76,11.58-33.2,7.12-11.01,12.19-21.94,17.82-34.42,4.65-9.6,9.77-15.18,13.57-21.84,2.79-4.88,4.83-10.46,9.88-13.48,5.65-3.38,12.87-2.01,18.17,1.47,2.8,1.84,5.75,4.56,7.6,7.41,2.83,4.35,3.65,11.94,4.3,19.59,1.72,20.43,1.67,48.38,1.83,64.31.56,4.52,2.02,4.48,2.34,7.77ZM651.53,155.7c5.14-.21,7.62,1.11,13.75.74.45-4.99,1.63-7.19,1.17-9.28.96-9.87-3.96-14.27-4-10.77-4.74.85-7.45,12.76-10.93,19.31Z"/>
        <path class="cls-3" d="M427.34,107.24c5.58,6.67-2.69,8.94-8.04,11.27-5.11,2.23-11.25.92-17.86,2.19-12.98,2.5-30.56,8.56-31.97,14.9,14.17,4.79,31.37-.56,46.52,4.11,1.85,2.79,4.93,4.13,8.35,5.09,3.41,6.02,4.85,5.84,2.73,15.64-.32,7.86-5.29,12.92-8.56,18.75-5.71,2.81-10.14,12.31-16.02,15.75-6.27,3.66-20.56,10.04-31.31,14.12-11.63,4.41-35.96,6.61-45.27,2.28-2.92-1.36-10.34-7.25-11.63-9.86-2.35-4.78.81-8.35-1.72-12.13,1.59-1.98,3.29-5.95,6.1-4.83,4.35,2.51,3.47,8.78,28.38,9.65,33.75-5.48,57.33-19.33,53.83-32.98-6.43-15.01-49.98,1.58-55.9-16.36-2.56-7.77,3.03-9.97,1.57-16.01,13.81-17.3,46.97-29.44,74.44-24.88,2.82.4-3.75,3.48,6.35,3.3Z"/>
        <path class="cls-3" d="M539.88,124.3c-21.5,1.38-38.82-3.93-49.21,18.02-4.73,9.98-11.8,23.91-17.03,36.46-2.12,5.1-6.92,14.26-12.82,21.17-6.04,7.07-2.95,19.3-14.93,15.45-7.19-7.16-.04-14.57,3.05-23.86,3.92-11.78,7.35-21.69,11.52-33.86.96-2.79,2.6-5.39,3.62-8.16,2.64-7.14,4.09-14.87,7.07-20.97-9.06-1.41-24.97,3.07-34.82,2.87-6.84-6.08-.43-13.74,2.75-18.83,21.96-1.03,43.75-4.7,71.65-4.82,5.17-.02,26.79,1.38,32.15.76,46.33-5.35,61.31-3.11,68.77,21.78,4.33,22.41-7.55,38.42-20.52,50.25-7.21,6.56-12.32,8.6-22.46,14.01-4.01,2.14-8.17,5.73-12.27,7.45-3.11,1.3-7.15,1.16-10.54,2.3-9.01,3.01-33.54,15.5-36.42.84-1.67-8.51,9.81-25.35,12.41-31.78,6.79-16.78,14.23-34.2,18.04-49.08ZM558.37,125.31c-1.82,3.7-3.48,10.01-4.21,14-.4,2.19-.75,4.47-1.54,6.56-.77,2.05-2.32,3.34-3.21,5.27-1.18,2.55-1.02,5.91-1.9,8.64-.96,3.02-2.27,5.9-3.65,8.76-2.84,5.86-5.81,14.01-7.35,20.39.23-.94,11.49-5.76,12.93-6.25,3.81-1.3,7.59-2.8,11.21-4.59,7.59-3.76,14.01-8.95,20.14-14.71,6.65-6.25,12.13-12.94,12.55-22.43.19-4.36-.16-6.55-.94-10.59-1.68-8.63-24.31-8.35-34.04-5.03Z"/>
        <path class="cls-3" d="M334.03,109.8c.94,4.35-5.11,10.09-6.99,13.27-4.84,8.19-9.37,16.58-13.72,25.04-8.71,16.96-16.68,34.28-24.16,51.82-4.69,2.16-5.1,7.94-10.42,9.57-2.24,3.08-3.02,7.4-8.71,7.56-3.47-8.78,3.63-17.81,2.66-28.22,6.93-13.31,11.58-27.62,16.66-41.69,2.56-7.07,5.22-14.12,8.34-20.96,1.22-2.69,4.13-6.32,4.56-9.17.25-1.65-1.47-3.7-.9-5.29.52-1.48,1.87-1.81,3.14-2.35,4.51-1.94,9.4-.82,14.12-1.18,4.07-.3,12.31-4.46,15.01.52.19.35.32.71.4,1.08Z"/>
        <g>
          <path class="cls-4" d="M105.4,85.39c2.22,1.1.39,1.72.31,3.59-2.67-.58-.17-1.96-.31-3.59Z"/>
          <path class="cls-5" d="M72.28,142.3c8.48.29,13.94.33,21.83.67-2,4.22-4.4,9.19-4.86,16.07-7.47,1.58-14.39.23-21.21-.72,1.62-5.17,4.42-9.37,4.24-16.01Z"/>
          <path class="cls-2" d="M263.84,89.45c-.52.01-1.03.01-1.55.02-1.37,2.33-4.37,4.78-5.58,7.34.31.13.65.23.94.37-.44.27-.91.54-1.37.82-1.28,5.85-25.03,27.43-27.6,30.22-2.56,2.81-9.86,10.04-9.86,10.04,0,0-6.9,4.71-13.83,8.95-15.92,11.28-30.49,24.24-50.49,32.36-2.89,1.17-7.44,2.53-10.95,3.29-9.7,2.1-21.33,6.4-31.36,4.45-8.11-1.58-21.31-11.76-21.86-20.81-4.51-1.54.02-4.99,1.3-6.74,1.29-1.75-1.6-4.16,0-10.39,1.6-6.22,4.61-11,4.61-11,0,0,.23-.34.62-.89,2.21-3.14,2.24-7.35,3.48-10.86,1.43-4.04,3.89-5.47,6.72-8.52,2.3-2.48,2.25-5.81,3.58-8.72,1.86-4.09,5.24-7.63,8.1-11.07,2.87-3.46,7.28-5.36,9.83-8.92,3.08-4.32,9.4-8.09,10.28-13.51,2.59-.29,7.7-7.1,7.7-7.1,2.77-4.99,7.08-8.5,12.06-11.76,7.12-4.66,11.31-10.12,19.47-14.18,6.15-3.05,12.05-7.94,18.86-12.19,12.44-3.91,20.93-10.48,33.43-11.72,4.24-.43,4.31-1.96,8.52-2.8,4.2-.85,7.59-.67,11.46-2.69,3.47-1.81,6.71-2.6,10.71-2.35,1.67.11,3.58.87,5.25.56,2.13-.39,1.47-2.72,3.21-2.28,7.57,1.93,6.15-2.6,6.09-1.09.19-3.93-3.81-3.09-5.4-4.99C253.2-.35,255.95,0,239.91.01c-16.6.01-21.93,6.9-35.43,9.81-2.78.6-18.53,3.62-20.78,5.28-2.74,2.02-5.31,4.24-8.09,6.22-7.81,5.57-14.57,6.93-22.88,11.67-2.61,1.5-14.39,8.99-17.44,15.09-.14-.23-.34-.4-.6-.5-1.57,1.12-2.4,3.08-3.81,4.39-1.43,1.33-5.36,1.46-4.96,3.25.86,3.87-4.62,3.76-6.45,5.82-1.12,1.27-1.76,2.77-3.02,4.01-1.21,1.2-2.72,2.12-3.81,3.46-.84,1.03-1.34,4.29-1.97,4.81-7.11,5.78-12.96,12.6-16.93,20.95,1.11,2.45-1.09,4.9-4.96,8.16-4.82,4.05-5.34,9.24-5.34,9.24,0,0-2.92.93-4.69,2.9-.23.32-2.23,2.62-2.44,2.95-.91,1.58-2.19,4.59-3.45,7.65-1.06,2.97-2.07,5.98-3.58,8.68-1.36,2.75-.4,8.38-2.65,11.12-2.25,2.73-2.57,5.35-2.89,8.77-.31,3.42-1.32,10.86-1.32,10.86.28,2.17-.17,4.05-1.45,4.94,1.07,6.58,9.99,12.32,10.37,19.69,2.75,4.08,7.6,5.76,10.75,9.39,10.29,2.03,16.43,10.55,27.13,11.71,3.44.38,8.02.26,11.84.26,5.7,0,16.1-1.64,23.33-3.67,3.08-.86,5.83-3.01,9.02-3.74,5.61-1.28,10.01-.61,14.06-2.92,12.74-7.29,27.23-14.32,36.64-22.83-.31-3.03,1.8-4.08,4.59-4.58-1.11,4.47-3.8,6.66-5.42,9.48-2.01,3.48-2.75,9.3-5.63,14.32-4.54,7.89-7.95,12.27-6.36,20.41,6.43-.85,8.07-5.62,11.7-8.77.93,1.12,1.92,2.19,4.48,1.45,3.14-5.41,7.62-9.7,9.18-16.41,8.31-5.44,9.59-16.64,17.38-22.49,3.01-19.8,12.95-19.46,16.61-31.48,2.81-2.38,6.7-5.44,6.76-8.38,2.17-.46,1.95-2.86,4.75-2.79,1.86-5.34,3.62-10.78,10.16-12.27,2.33-5.7,6.53-9.86,6.61-17.41,0-5.2-4.44-7.83-15.08-9.05Z"/>
          <path class="cls-8" d="M277.62,95.53c-1.27-5.99-9.11-10-14.68-12.01-10.82-3.9-22.78-5.44-34.35-6.18-8.07-.51-16.24-.72-24.32-.58-1.24.02-6.76-.46-7.68.61-1.12,1.31,11,1.5,12.14,1.59,9.41.79,11.75,1.48,15.52,1.72,8.73.57,25.53,2.64,27.69,12.78,2.45,11.52-42.72,27.09-107.2,38.18-64.49,11.11-118.75,10.77-121.2-.74-1.82-8.55,25.46-20.86,66.01-31.17,1.21-1.34,3.38-1.43,3.19-5.98-.04-.93.14-1.4.12-1.71C37.28,106.29-3.14,128.67.19,144.39c4.08,19.18,73.62,24.13,148.83,11.19,75.22-12.95,132.67-40.86,128.6-60.04Z"/>
          <path class="cls-6" d="M126.65,93.67c19.93-4.62,26.82-4.75,42.8-7.78,0,0,8.65-3.83-35.39-.3-1,1.42-4.23,6.03-7.4,8.08Z"/>
        </g>
      </g>
      <g>
        <path class="cls-2" d="M360.74,60.34c0,14.36-11.64,26.01-26.01,26.01s-26.01-11.64-26.01-26.01,11.65-26.01,26.01-26.01,26.01,11.64,26.01,26.01Z"/>
        <path class="cls-1" d="M332.63,62.96s.47.08.82.43c.35.35.7.7.9.86.19.15.66.62.78.74.12.12.43.43.55.59.12.15.39.7.43.85.04.16.08.39.08.39l-.04.47.08.31s.35.16.54.16,1.52-.5,1.79-.04c.27.47.16.62.31.7.15.08.15.31.15.31l-.97.23s-1.32,0-1.48-.12c-.15-.12,0-.47-.86-.86-.86-.39-1.13-.86-1.24-1.17-.12-.31-.82-1.16-.9-1.63-.08-.47-1.01-1.06-1.05-1.29-.04-.24-.19-.9-.19-.9l.31-.04Z"/>
        <path class="cls-1" d="M339.45,66.89s-1.05.19-1.32-.04c-.27-.23-.58-.78-.82-1.01-.23-.23-.19-1.17.23-1.36.43-.19,1.09-.78,1.36-1.2.27-.43,1.21-1.02,1.36-1.02s.54.39.39.62c-.16.23-.62.97-.58,1.17.04.2.27.31.27.7s-.23.51-.39.78c-.15.27-.15.78-.19.9-.04.12-.31.47-.31.47Z"/>
        <path class="cls-1" d="M315.01,74.9c.55.11,1.9-.91,1.84-1.36-.08-.59-.08-1.3.11-1.45.19-.15.56-1.27.41-1.53-.15-.26-.37-.63-.6-.6-.22.04-1.41.82-1.45,1.04-.04.22-.45,1.45-.56,1.75-.11.3-.37.86-.29,1.08.07.22.33.89.33.89.04.09.11.15.21.16Z"/>
        <path class="cls-1" d="M340.45,57.38s-.38.59-.29.91c.09.32.44,1,.62,1.06.18.06.41.21.41.29s.26.12.18.56c-.09.44-.12.85-.06,1.03.06.18.23.67.5.85.26.17.21.47.47.5.26.03.91,0,.97-.14.06-.15-.32-.88-.32-.97s-.18-.26-.38-.32c-.2-.06-.7-.25-.76-.43-.06-.17.05-.21.05-.57s-.28-.36-.05-.72c.23-.35.37-.6.19-.77-.17-.17-.08-.39-.2-.39s-.44.26-.47-.21l-.03-.47-.12-.18s-.12-.5-.41-.38c-.3.12-.3.35-.3.35Z"/>
        <path class="cls-1" d="M342.34,64.63s-.13.32-.32.32-.88-.27-1.13.11c-.24.38-.37.94-.4,1.1-.03.16-.27.32-.19.56.08.24.48.62.4.88-.08.27.05.4.24.29.19-.11.24-.56.32-.61.08-.05.08.11.29.11s.54.3.54-.08-.16-.94-.03-1.07c.14-.13.56-.29.22-.54-.35-.24-.88-.37-.51-.4.37-.03.59-.11.72-.19.13-.08.32-.22.29-.4-.03-.19.03-.27-.11-.27s-.35.19-.35.19Z"/>
        <path class="cls-1" d="M344.61,66.05c.27.22.32.75.4.96.08.21.05.43.96.88.91.46,1.04.27,1.26.99.21.72.32,1.1.75,1.04.43-.05.24-.97.99-.7.75.27,1.07.37,1.34.67.27.29.54.43.67.32.13-.11.4-.27.18-.46-.21-.19-.56-.35-.8-.75-.24-.4-.05-.46-.29-.8-.24-.35-.67-.83-1.15-1.26-.48-.43-.86-.67-1.21-.72-.35-.05-.59-.19-.85-.08-.27.11-.61.19-.8.05-.19-.13-.62-.48-.78-.59-.16-.11-.72-.51-.88-.14-.16.37.21.56.21.56Z"/>
        <path class="cls-1" d="M340.34,68.95s.36.59.98.39c.62-.21.82-.18.54-.46-.28-.28-.62-.36-.72-.28-.1.08-.33.15-.44.15s-.36.21-.36.21Z"/>
        <path class="cls-1" d="M345.99,70.55s-1.32-.1-1.86.34c-.54.44-.46.8-.93.96-.47.15-1.06.44-1.37.64-.31.2-1.55,1.03-1.91,1.37-.36.34-1.16.36-1.58.6-.41.23-.59.72-.65.8-.05.08-.39.93-.33,1.78.05.85.05,1.96-.1,2.14-.15.18-.44.59-.21.83.23.23.36.23.75.41.39.18.52.49,1.14.1.62-.39,1.57-.44,1.91-.72.34-.28,1.37-.28,1.65-.18.28.1.96.33,1.16.96.21.62.57.05.77.67.21.62-.62.93.47,1.34,1.08.41,2.58,0,2.73-.26.16-.26.72-1.34,1.24-1.65.52-.31,1.45-1.5,1.34-2.32-.1-.83-.21-3.56-.47-3.87-.26-.31-.57-1.13-.67-1.5-.11-.36,0-1.08-.26-1.29-.26-.21-.31-.77-.31-.93s-.15-.78-.41-.42c-.26.36-.31.73-.31,1.19s-.1,1.13-.36,1.29c-.26.16-.36.72-.57.52-.21-.21-1.14-1.08-.98-1.24.15-.16.57-.62.57-.93s-.47-.62-.47-.62Z"/>
        <path class="cls-7" d="M346.04,37.37c.17-.03.39-.13.52-.2-3.55-1.81-7.56-2.84-11.82-2.84-14.36,0-26.01,11.64-26.01,26.01,0,4.51,1.15,8.75,3.17,12.45.46-.15,2.06-.71,2.14-1.51.1-.93-.93-2.17-.72-3.3.21-1.13,1.34-2.68,1.86-3.2.52-.51,2.07-1.86,1.86-2.48-.21-.62.2-1.24.2-1.24h-1.75c-.62,0-1.55-.93-1.55-.93,0,0-.62-1.14-1.03-1.86-.41-.72-.41-2.17-.93-2.38-.51-.21-1.03-1.34-1.03-1.34l.26-.36s1.51,1.21,1.58,1.88c.07.68.53,1.21.83,1.66.3.45.68,1.81.68,1.81l.6.91s.91-.3,1.43-.6c.53-.3,1.58-.45,1.73-.9.15-.45.98-.68,1.35-1.51,0,0,.48-.14.44-.55-.04-.41-.65-1.38-.89-1.55-.24-.16-.69-.2-.77-.08-.08.12-.33.45-.45.41-.12-.04-.41-.08-.41-.29s-.28-.41-.49-.49c-.2-.08-.61-.08-.61-.49s.24-.73.37-.73.89.69.93.85c.04.16.65.49,1.06.45.41-.04.45.04.77.21.32.16,1.38.37,1.83.32.45-.04,1.5.32,1.62.61.12.28.45.97.73.93.29-.04.69.12.65.28-.04.16-.28,1.22-.04,1.38.24.16.61.36.73.9.12.53.04,1.09.37,1.3s.2.65.37.77c.16.12.16.41.49.29.32-.12,1.06-.29,1.14-.93.08-.65.12-1.87.32-1.99.2-.12.98-.81,1.06-1.14.08-.32.37-.65.45-1.01.08-.37.65-.89,1.06-.77.41.12,1.1.85,1.14,1.22.04.37-.12,1.06.32,1.3.45.24,1.1.04,1.22.37.12.32.16,1.01.49,1.26.33.25.45,1.51.37,1.83-.08.33.37.93.53,1.5.17.57.85.85.98.85s.37-1.34.04-1.54c-.33-.2-1.14-.77-1.14-1.06s-.21-1.59.04-1.67c.25-.08.86.49.98.61.12.12.45.69.57.73.12.04.57-.33.85-.53.28-.2.65-1.38.37-1.95-.28-.57-1.22-1.58-1.22-1.58,0,0-.2-.61.36-.73.57-.12,1.95-.45,2.64-1.14.69-.69,1.22-1.75,1.22-2.15s-.44-1.79-.61-2.07c-.16-.28-.93-1.14-.73-1.46.2-.32,1.02-.81.61-.98-.41-.16-1.26,0-1.3-.2-.04-.2.12-.57.28-.57s.2.37.57.29c.36-.08.77-.28.98.08.2.37.49,1.06.73,1.06s.36.65.69.61c.33-.04.45-.32.57-.12.12.21,0,.49.25.65.24.16.37.57.61.49.24-.08.45-.32.45-.57s-.12-.41.17-.41,1.14-.12,1.18-.36c.04-.24.38-1.33.38-1.8v-1.29s-.88-.47-.26-.73c.62-.26,1.24-.41.47-.72-.77-.31-1.29-.62-1.29-.62l-.41,1.08s.21.57.52.77c.31.21.26.98.15,1.14-.1.16-.26.72-.41.88-.16.15-.78.83-.78.83,0,0-.21.31-.46.36-.26.05-.57.26-.62,0-.05-.26.21-.88-.05-1.03-.26-.15-.93-.46-.98-.62-.05-.15.1-1.03.21-1.24.1-.21.98-.31,1.03-.72.05-.41-.15-1.75-.05-2.01.1-.26,0-1.19-.26-1.55-.26-.36-.98-1.29-1.24-1.34-.26-.05-1.08,0-.88-.98.21-.98,1.19-1.39,2.53-1.34,1.34.05.98-1.34.93-1.65-.05-.31.62.46.83.36.21-.1.36-1.29.46-.88.1.41.62,2.37.62,2.84s1.03,2.01,1.55,1.5c.52-.52.47-1.34.16-1.65-.31-.31-.83-.46-.78-1.03.05-.57.11-.98.36-1.03Z"/>
      </g>
    </g>
  </g>
</svg>