<?xml version="1.0" encoding="UTF-8"?>
<svg id="Layer_2" data-name="Layer 2" xmlns="http://www.w3.org/2000/svg" viewBox="0 0 240.94 240.94">
  <defs>
    <style>
      .cls-1 {
        fill: #4fb95b;
      }

      .cls-2 {
        fill: #c51c6b;
      }

      .cls-3 {
        fill: #231f20;
      }

      .cls-4 {
        fill: #6081c1;
      }

      .cls-5 {
        fill: #fff;
      }
    </style>
  </defs>
  <g id="Layer_3" data-name="Layer 3">
    <rect class="cls-3" x="0" y="0" width="240.94" height="240.94" rx="120.47" ry="120.47"/>
    <g>
      <g>
        <g>
          <path class="cls-5" d="M7.17,134.4v-27.35h3.2l12.27,20.67h-1.72l12.11-20.67h3.2l.04,27.35h-3.75l-.04-21.45h.9l-10.78,18.13h-1.8l-10.86-18.13h.98v21.45h-3.75Z"/>
          <path class="cls-5" d="M56.83,134.71c-2.08,0-4.02-.35-5.8-1.05-1.79-.7-3.33-1.69-4.63-2.95s-2.32-2.74-3.05-4.44c-.73-1.69-1.09-3.54-1.09-5.55s.37-3.85,1.09-5.55c.73-1.69,1.74-3.17,3.05-4.43s2.84-2.25,4.61-2.95c1.77-.7,3.71-1.06,5.82-1.06s4.01.35,5.76,1.04c1.76.69,3.29,1.67,4.61,2.93,1.31,1.26,2.33,2.74,3.05,4.43.72,1.69,1.07,3.56,1.07,5.59s-.36,3.89-1.07,5.59c-.72,1.69-1.73,3.17-3.05,4.44-1.32,1.26-2.85,2.24-4.61,2.93-1.76.69-3.68,1.04-5.76,1.04ZM56.83,131.23c1.51,0,2.91-.26,4.2-.78,1.29-.52,2.41-1.26,3.36-2.21.95-.95,1.69-2.06,2.23-3.34.53-1.28.8-2.67.8-4.18s-.27-2.9-.8-4.18c-.53-1.28-1.28-2.39-2.23-3.34-.95-.95-2.07-1.69-3.36-2.21-1.29-.52-2.69-.78-4.2-.78s-2.95.26-4.24.78c-1.29.52-2.42,1.26-3.38,2.21-.96.95-1.71,2.06-2.25,3.34-.53,1.28-.8,2.67-.8,4.18s.27,2.91.8,4.18c.53,1.28,1.28,2.39,2.25,3.34.96.95,2.09,1.69,3.38,2.21,1.29.52,2.7.78,4.24.78Z"/>
          <path class="cls-5" d="M99.84,134.4v-27.35h3.91v27.35h-3.91Z"/>
          <path class="cls-5" d="M124.3,134.71c-2.08,0-4.02-.35-5.8-1.05s-3.33-1.69-4.63-2.95c-1.3-1.26-2.32-2.74-3.05-4.44-.73-1.69-1.09-3.54-1.09-5.55s.37-3.85,1.09-5.55c.73-1.69,1.75-3.17,3.05-4.43,1.3-1.26,2.84-2.25,4.61-2.95,1.77-.7,3.71-1.06,5.82-1.06s4,.35,5.76,1.04c1.76.69,3.29,1.67,4.61,2.93s2.33,2.74,3.05,4.43c.72,1.69,1.07,3.56,1.07,5.59s-.36,3.89-1.07,5.59c-.72,1.69-1.73,3.17-3.05,4.44s-2.85,2.24-4.61,2.93c-1.76.69-3.68,1.04-5.76,1.04ZM124.3,131.23c1.51,0,2.91-.26,4.2-.78,1.29-.52,2.41-1.26,3.36-2.21.95-.95,1.69-2.06,2.23-3.34.53-1.28.8-2.67.8-4.18s-.27-2.9-.8-4.18c-.53-1.28-1.28-2.39-2.23-3.34-.95-.95-2.07-1.69-3.36-2.21-1.29-.52-2.69-.78-4.2-.78s-2.95.26-4.24.78c-1.29.52-2.42,1.26-3.38,2.21-.96.95-1.71,2.06-2.25,3.34-.53,1.28-.8,2.67-.8,4.18s.27,2.91.8,4.18c.53,1.28,1.28,2.39,2.25,3.34.96.95,2.09,1.69,3.38,2.21,1.29.52,2.7.78,4.24.78Z"/>
          <path class="cls-5" d="M144.77,134.4v-27.35h3.2l18.09,22.47h-1.68v-22.47h3.91v27.35h-3.2l-18.09-22.47h1.68v22.47h-3.91Z"/>
          <path class="cls-5" d="M184.47,134.71c-2.08,0-4.08-.32-5.98-.96-1.9-.64-3.4-1.46-4.49-2.48l1.44-3.05c1.04.91,2.37,1.67,3.99,2.27,1.61.6,3.29.9,5.04.9,1.59,0,2.88-.18,3.87-.55.99-.36,1.72-.87,2.19-1.5.47-.64.7-1.36.7-2.17,0-.94-.31-1.69-.92-2.27-.61-.57-1.41-1.04-2.38-1.39-.98-.35-2.05-.66-3.22-.92s-2.35-.57-3.54-.92c-1.19-.35-2.27-.8-3.24-1.35-.98-.55-1.77-1.28-2.36-2.21-.6-.92-.9-2.12-.9-3.57s.37-2.7,1.11-3.89c.74-1.19,1.89-2.14,3.44-2.85,1.55-.72,3.52-1.07,5.92-1.07,1.59,0,3.17.21,4.73.63,1.56.42,2.92,1.02,4.06,1.8l-1.29,3.13c-1.17-.78-2.41-1.35-3.71-1.7s-2.57-.53-3.79-.53c-1.54,0-2.8.2-3.79.59s-1.71.91-2.17,1.56c-.46.65-.68,1.38-.68,2.19,0,.96.31,1.73.92,2.3.61.57,1.41,1.03,2.38,1.37.98.34,2.05.64,3.22.92,1.17.27,2.35.58,3.54.92,1.18.34,2.27.78,3.24,1.33.98.55,1.76,1.28,2.36,2.19.6.91.9,2.08.9,3.52s-.38,2.66-1.13,3.85c-.76,1.19-1.92,2.14-3.5,2.85-1.58.72-3.56,1.07-5.96,1.07Z"/>
          <path class="cls-5" d="M200.76,134.4v-27.35h3.91v27.35h-3.91Z"/>
          <path class="cls-5" d="M208.5,134.4l11.37-15.51v3.01l-10.74-14.85h4.45l8.52,11.68-1.76.04,8.48-11.72h4.26l-10.67,14.61v-2.81l11.37,15.55h-4.49l-9.06-12.46h1.72l-8.95,12.46h-4.49Z"/>
        </g>
        <g>
          <path class="cls-2" d="M99.16,81.3l2.72,2.72-27.43,27.43-2.72-2.72,27.43-27.43Z"/>
          <path class="cls-4" d="M107.3,97.02v3.85h-46.05v-3.85h46.05Z"/>
          <path class="cls-1" d="M82.31,75.94h3.85v58.42h-3.85v-58.42Z"/>
        </g>
        <g>
          <path class="cls-1" d="M99.16,81.3l2.72,2.72-27.43,27.43-2.72-2.72,27.43-27.43Z"/>
          <path class="cls-2" d="M107.3,97.02v3.85s-46.05,0-46.05,0v-3.85h46.05Z"/>
          <path class="cls-4" d="M82.31,75.94h3.85v58.42h-3.85v-58.42Z"/>
        </g>
      </g>
      <g>
        <path class="cls-5" d="M156.56,151.75c-.68,0-1.32-.12-1.91-.35-.58-.23-1.09-.55-1.52-.96-.43-.42-.76-.91-1-1.46-.24-.56-.36-1.16-.36-1.82s.12-1.27.36-1.82c.24-.56.57-1.04,1-1.45.43-.42.93-.74,1.52-.98.58-.23,1.22-.35,1.91-.35s1.31.12,1.89.35c.58.22,1.09.54,1.52.96.44.41.77.89,1,1.45.24.56.36,1.17.36,1.84s-.12,1.28-.36,1.84c-.23.56-.56,1.04-1,1.46-.43.41-.93.73-1.52.96-.57.22-1.2.33-1.89.33ZM156.56,150.61c.5,0,.95-.09,1.37-.26.43-.17.8-.41,1.1-.72.32-.32.56-.68.73-1.1.18-.42.27-.88.27-1.37s-.09-.95-.27-1.37c-.17-.42-.42-.78-.73-1.09-.31-.32-.68-.56-1.1-.73-.42-.17-.88-.26-1.37-.26s-.97.09-1.4.26c-.42.17-.79.42-1.1.73-.32.31-.57.67-.74,1.09-.17.42-.26.88-.26,1.37s.09.95.26,1.37c.18.42.43.79.74,1.1.32.31.68.55,1.1.72.43.17.89.26,1.4.26Z"/>
        <path class="cls-5" d="M142.11,151.65v-8.99h1.28v8.99h-1.28Z"/>
        <path class="cls-5" d="M125.08,151.65v-8.99h3.79c.96,0,1.8.19,2.53.57.74.38,1.31.9,1.71,1.58.41.68.62,1.46.62,2.35s-.21,1.67-.62,2.35c-.4.68-.97,1.2-1.71,1.58-.73.38-1.57.56-2.53.56h-3.79ZM126.37,150.53h2.43c.74,0,1.39-.14,1.93-.42.55-.28.97-.68,1.27-1.18.3-.51.45-1.1.45-1.77s-.15-1.27-.45-1.77c-.3-.5-.72-.9-1.27-1.18-.54-.28-1.18-.42-1.93-.42h-2.43v6.75Z"/>
        <path class="cls-5" d="M112.23,151.75c-1.18,0-2.11-.34-2.79-1.01-.68-.68-1.01-1.66-1.01-2.97v-5.11h1.28v5.06c0,1,.22,1.73.65,2.2.45.46,1.07.69,1.87.69s1.44-.23,1.87-.69c.45-.46.67-1.19.67-2.2v-5.06h1.25v5.11c0,1.3-.34,2.29-1.01,2.97-.67.68-1.6,1.01-2.79,1.01Z"/>
        <path class="cls-5" d="M96.5,151.65v-7.87h-3.08v-1.12h7.43v1.12h-3.08v7.87h-1.27Z"/>
        <path class="cls-5" d="M83.06,151.75c-.68,0-1.34-.1-1.96-.31-.62-.21-1.12-.49-1.48-.82l.48-1c.34.3.78.55,1.31.74.53.2,1.08.3,1.66.3.52,0,.95-.06,1.27-.18s.56-.28.72-.49c.15-.21.23-.45.23-.72,0-.31-.1-.56-.31-.74-.2-.19-.46-.34-.78-.45-.32-.12-.67-.22-1.05-.31-.39-.09-.77-.18-1.17-.3-.39-.12-.74-.27-1.07-.45-.32-.18-.57-.42-.77-.72-.2-.31-.3-.7-.3-1.18s.12-.89.36-1.27c.25-.39.62-.71,1.13-.94.51-.24,1.16-.36,1.95-.36.52,0,1.04.07,1.55.21.51.14.96.33,1.34.59l-.42,1.03c-.39-.26-.79-.44-1.22-.55-.43-.12-.84-.18-1.25-.18-.5,0-.92.06-1.25.19s-.57.3-.72.51c-.15.21-.22.45-.22.72,0,.32.1.57.3.76.21.19.47.34.78.45.33.11.68.21,1.07.31.39.09.77.18,1.16.3.39.11.75.26,1.07.44.33.18.59.42.78.72.2.3.3.68.3,1.16s-.12.88-.37,1.27c-.25.39-.63.7-1.16.94-.51.23-1.16.35-1.95.35Z"/>
      </g>
    </g>
  </g>
</svg>