<?xml version="1.0" encoding="UTF-8"?>
<svg id="Layer_2" data-name="Layer 2" xmlns="http://www.w3.org/2000/svg" viewBox="0 0 240.94 240.94">
  <defs>
    <style>
      .cls-1 {
        fill: #4fb95b;
      }

      .cls-2 {
        fill: #c51c6b;
      }

      .cls-3 {
        fill: #231f20;
      }

      .cls-4 {
        fill: #6081c1;
      }

      .cls-5 {
        fill: #fff;
      }
    </style>
  </defs>
  <g id="Layer_3" data-name="Layer 3">
    <rect class="cls-3" width="240.94" height="240.94"/>
    <g>
      <g>
        <g>
          <path class="cls-5" d="M35.16,129.32v-20.59h2.41l9.24,15.56h-1.29l9.12-15.56h2.41l.03,20.59h-2.82l-.03-16.15h.68l-8.12,13.65h-1.35l-8.18-13.65h.74v16.15h-2.82Z"/>
          <path class="cls-5" d="M72.55,129.56c-1.57,0-3.03-.26-4.37-.79-1.34-.53-2.51-1.27-3.49-2.22s-1.75-2.06-2.29-3.34c-.55-1.27-.82-2.67-.82-4.18s.27-2.9.82-4.18c.55-1.27,1.31-2.39,2.29-3.34s2.14-1.69,3.47-2.22c1.33-.53,2.79-.79,4.38-.79s3.02.26,4.34.78c1.32.52,2.48,1.26,3.47,2.21.99.95,1.76,2.06,2.29,3.34.54,1.28.81,2.68.81,4.21s-.27,2.93-.81,4.21c-.54,1.28-1.31,2.39-2.29,3.34-.99.95-2.15,1.69-3.47,2.21-1.32.52-2.77.78-4.34.78ZM72.55,126.94c1.14,0,2.19-.2,3.16-.59.97-.39,1.81-.95,2.53-1.66.72-.72,1.28-1.55,1.68-2.52.4-.96.6-2.01.6-3.15s-.2-2.19-.6-3.15c-.4-.96-.96-1.8-1.68-2.52-.72-.72-1.56-1.27-2.53-1.66-.97-.39-2.03-.59-3.16-.59s-2.22.2-3.19.59c-.97.39-1.82.95-2.54,1.66-.73.72-1.29,1.55-1.69,2.52-.4.96-.6,2.01-.6,3.15s.2,2.19.6,3.15c.4.96.97,1.8,1.69,2.52.73.72,1.57,1.27,2.54,1.66.97.39,2.03.59,3.19.59Z"/>
          <path class="cls-5" d="M104.94,129.32v-20.59h2.94v20.59h-2.94Z"/>
          <path class="cls-5" d="M123.36,129.56c-1.57,0-3.02-.26-4.37-.79s-2.51-1.27-3.49-2.22c-.98-.95-1.75-2.06-2.3-3.34-.55-1.27-.82-2.67-.82-4.18s.27-2.9.82-4.18c.55-1.27,1.31-2.39,2.3-3.34.98-.95,2.14-1.69,3.47-2.22,1.33-.53,2.79-.79,4.38-.79s3.02.26,4.34.78c1.32.52,2.48,1.26,3.47,2.21s1.76,2.06,2.3,3.34c.54,1.28.81,2.68.81,4.21s-.27,2.93-.81,4.21c-.54,1.28-1.31,2.39-2.3,3.34s-2.15,1.69-3.47,2.21c-1.32.52-2.77.78-4.34.78ZM123.36,126.94c1.14,0,2.19-.2,3.16-.59.97-.39,1.81-.95,2.53-1.66.72-.72,1.28-1.55,1.68-2.52.4-.96.6-2.01.6-3.15s-.2-2.19-.6-3.15c-.4-.96-.96-1.8-1.68-2.52-.72-.72-1.56-1.27-2.53-1.66-.97-.39-2.03-.59-3.16-.59s-2.22.2-3.19.59c-.97.39-1.82.95-2.54,1.66-.73.72-1.29,1.55-1.69,2.52-.4.96-.6,2.01-.6,3.15s.2,2.19.6,3.15c.4.96.97,1.8,1.69,2.52.73.72,1.57,1.27,2.54,1.66.97.39,2.03.59,3.19.59Z"/>
          <path class="cls-5" d="M138.77,129.32v-20.59h2.41l13.62,16.92h-1.27v-16.92h2.94v20.59h-2.41l-13.62-16.92h1.26v16.92h-2.94Z"/>
          <path class="cls-5" d="M168.66,129.56c-1.57,0-3.07-.24-4.5-.72-1.43-.48-2.56-1.1-3.38-1.87l1.09-2.29c.79.69,1.79,1.26,3,1.71,1.21.45,2.48.68,3.8.68,1.2,0,2.17-.14,2.91-.41.74-.27,1.29-.65,1.65-1.13.35-.48.53-1.02.53-1.63,0-.71-.23-1.28-.69-1.71-.46-.43-1.06-.78-1.79-1.04-.74-.26-1.54-.49-2.43-.69s-1.77-.43-2.66-.69c-.89-.26-1.71-.6-2.44-1.02-.74-.41-1.33-.97-1.78-1.66-.45-.7-.68-1.59-.68-2.69s.28-2.03.84-2.93c.56-.89,1.42-1.61,2.59-2.15,1.17-.54,2.65-.81,4.46-.81,1.2,0,2.38.16,3.56.47,1.18.31,2.2.77,3.06,1.35l-.97,2.35c-.88-.59-1.81-1.01-2.79-1.28s-1.93-.4-2.85-.4c-1.16,0-2.11.15-2.85.44s-1.29.69-1.63,1.18c-.34.49-.51,1.04-.51,1.65,0,.73.23,1.3.69,1.74.46.43,1.06.78,1.79,1.03.73.26,1.54.48,2.43.69s1.77.44,2.66.69c.89.26,1.71.59,2.44,1,.73.41,1.33.96,1.78,1.65.45.69.68,1.57.68,2.65s-.28,2.01-.85,2.9c-.57.89-1.45,1.61-2.63,2.15-1.19.54-2.68.81-4.49.81Z"/>
          <path class="cls-5" d="M180.93,129.32v-20.59h2.94v20.59h-2.94Z"/>
          <path class="cls-5" d="M186.75,129.32l8.56-11.68v2.26l-8.09-11.18h3.35l6.41,8.8-1.32.03,6.38-8.83h3.21l-8.03,11v-2.12l8.56,11.71h-3.38l-6.83-9.39h1.29l-6.74,9.39h-3.38Z"/>
        </g>
        <g>
          <path class="cls-2" d="M104.42,89.34l2.05,2.05-20.66,20.66-2.05-2.05,20.66-20.66Z"/>
          <path class="cls-4" d="M110.55,101.17v2.9h-34.67v-2.9h34.67Z"/>
          <path class="cls-1" d="M91.74,85.3h2.9v43.99h-2.9v-43.99Z"/>
        </g>
        <g>
          <path class="cls-1" d="M104.42,89.34l2.05,2.05-20.66,20.66-2.05-2.05,20.66-20.66Z"/>
          <path class="cls-2" d="M110.55,101.17v2.9s-34.67,0-34.67,0v-2.9h34.67Z"/>
          <path class="cls-4" d="M91.74,85.3h2.9v43.99h-2.9v-43.99Z"/>
        </g>
      </g>
      <g>
        <path class="cls-5" d="M147.65,142.39c-.52,0-1-.09-1.44-.26-.44-.17-.82-.42-1.14-.73-.32-.32-.57-.68-.75-1.1-.18-.42-.27-.88-.27-1.37s.09-.95.27-1.37c.18-.42.43-.78.75-1.09.32-.32.7-.56,1.14-.73.44-.17.92-.26,1.44-.26s.99.09,1.42.26c.44.17.82.41,1.14.73.33.31.58.67.75,1.09.18.42.27.88.27,1.38s-.09.96-.27,1.38c-.17.42-.43.79-.75,1.1-.32.31-.7.55-1.14.73-.43.17-.91.25-1.42.25ZM147.65,141.53c.37,0,.72-.06,1.03-.19.32-.13.6-.31.83-.54.24-.24.42-.52.55-.83.14-.32.2-.66.2-1.03s-.07-.72-.2-1.03c-.13-.32-.31-.59-.55-.82-.23-.24-.51-.42-.83-.55-.32-.13-.66-.19-1.03-.19s-.73.06-1.05.19c-.32.13-.59.31-.83.55-.24.23-.43.51-.56.82-.13.32-.19.66-.19,1.03s.06.72.19,1.03c.14.32.32.59.56.83.24.23.52.41.83.54.32.13.67.19,1.05.19Z"/>
        <path class="cls-5" d="M136.76,142.31v-6.77h.97v6.77h-.97Z"/>
        <path class="cls-5" d="M123.94,142.31v-6.77h2.85c.72,0,1.36.14,1.9.43.55.28.98.68,1.29,1.19.31.51.46,1.1.46,1.77s-.15,1.26-.46,1.77c-.3.51-.73.91-1.29,1.19-.55.28-1.18.43-1.9.43h-2.85ZM124.91,141.47h1.83c.56,0,1.04-.11,1.45-.32.41-.21.73-.51.96-.89.23-.39.34-.83.34-1.33s-.11-.95-.34-1.33c-.23-.38-.54-.68-.96-.89-.41-.21-.89-.32-1.45-.32h-1.83v5.09Z"/>
        <path class="cls-5" d="M114.26,142.39c-.89,0-1.59-.25-2.1-.76-.51-.51-.76-1.25-.76-2.23v-3.85h.97v3.81c0,.75.16,1.31.49,1.65.34.35.81.52,1.41.52s1.08-.17,1.41-.52c.34-.35.5-.9.5-1.65v-3.81h.94v3.85c0,.98-.25,1.72-.76,2.23-.5.51-1.2.76-2.1.76Z"/>
        <path class="cls-5" d="M102.42,142.31v-5.93h-2.32v-.84h5.6v.84h-2.32v5.93h-.96Z"/>
        <path class="cls-5" d="M92.3,142.39c-.52,0-1.01-.08-1.48-.23-.47-.16-.84-.37-1.11-.62l.36-.75c.26.23.59.41.99.56.4.15.82.22,1.25.22.39,0,.71-.05.96-.14s.43-.21.54-.37c.12-.16.17-.34.17-.54,0-.23-.08-.42-.23-.56-.15-.14-.34-.25-.59-.34-.24-.09-.5-.17-.79-.23-.29-.06-.58-.14-.88-.22-.29-.09-.56-.2-.8-.34-.24-.14-.43-.32-.58-.54-.15-.23-.22-.53-.22-.89s.09-.67.27-.96c.19-.3.47-.53.85-.71.39-.18.88-.27,1.47-.27.39,0,.78.05,1.17.15.39.1.72.25,1.01.44l-.32.77c-.29-.19-.6-.33-.92-.42-.32-.09-.63-.14-.94-.14-.38,0-.69.05-.94.15s-.43.23-.54.39c-.11.16-.16.34-.16.54,0,.24.07.43.22.57.15.14.35.25.59.34.24.08.51.16.8.23.29.06.58.14.87.22.3.08.56.19.8.33.24.14.44.32.59.54.15.23.22.52.22.87s-.09.66-.28.96c-.19.29-.48.53-.87.71-.39.17-.88.26-1.47.26Z"/>
      </g>
    </g>
  </g>
</svg>